<svg id="Layer_1" data-name="Layer 1" xmlns="http://www.w3.org/2000/svg" xmlns:xlink="http://www.w3.org/1999/xlink" viewBox="0 0 206.26 206.63"><defs><style>.cls-1,.cls-3{fill:#f3f3f3;}.cls-1{opacity:0.11;isolation:isolate;}.cls-2{opacity:0.21;}.cls-10,.cls-4,.cls-9{fill:none;}.cls-4{stroke:#fff;}.cls-10,.cls-4{stroke-width:3px;}.cls-5{fill:#2f4a60;}.cls-6{fill:url(#linear-gradient);}.cls-7{fill:#e5e8ec;}.cls-8{fill:#cdd5d7;}.cls-9{stroke:#b5d1de;stroke-width:2px;}.cls-10{stroke:#879ba6;}.cls-11{fill:url(#linear-gradient-2);}.cls-12{fill:url(#linear-gradient-3);}.cls-13{fill:url(#linear-gradient-4);}.cls-14{fill:#599bfd;}</style><linearGradient id="linear-gradient" x1="-188.43" y1="522.39" x2="-187.64" y2="523.78" gradientTransform="matrix(129.6, 0, 0, -73, 24469.33, 38275.75)" gradientUnits="userSpaceOnUse"><stop offset="0.11" stop-color="#a5b6be"/><stop offset="0.83" stop-color="#d9e1e4"/></linearGradient><linearGradient id="linear-gradient-2" x1="-182.72" y1="511.06" x2="-181.73" y2="511.06" gradientTransform="matrix(26.12, 0, 0, -19.23, 4849.45, 9927.63)" gradientUnits="userSpaceOnUse"><stop offset="0" stop-color="#70d1d6"/><stop offset="1" stop-color="#88eebe"/></linearGradient><linearGradient id="linear-gradient-3" x1="-180.12" y1="515.37" x2="-179.12" y2="515.37" gradientTransform="matrix(19.23, 0, 0, -26.12, 3559.38, 13565.85)" gradientUnits="userSpaceOnUse"><stop offset="0" stop-color="#ffdf7d"/><stop offset="1" stop-color="#feb422"/></linearGradient><linearGradient id="linear-gradient-4" x1="-182.73" y1="511.06" x2="-181.73" y2="511.06" gradientTransform="matrix(26.12, 0, 0, -19.23, 4881.46, 9927.63)" gradientUnits="userSpaceOnUse"><stop offset="0" stop-color="#39cbff"/><stop offset="1" stop-color="#ca88f6"/></linearGradient></defs><title>content</title><g id="AddContent"><path id="Intersection_1" data-name="Intersection 1" class="cls-1" d="M54.81,89.69h-47L19.18,47.34c3.23-12.2,16-24.94,28.17-28.17L88.82,8.07A42.14,42.14,0,0,1,101.23,38v.29a25.81,25.81,0,0,1-3,51.44Z" transform="translate(-7.84 -8.07)"/><g id="Group_1671" data-name="Group 1671" class="cls-2"><path id="Path_1467" data-name="Path 1467" class="cls-3" d="M125.78,139.36c-.06-.67-.12-1.4-.12-2.12a17.75,17.75,0,0,1,22.54-17.09,26.06,26.06,0,0,1,51.87,3.58v.18a15.9,15.9,0,0,1-1.82,31.69h-71.5v-.06c-.24,0-.49.06-.67.06a8.13,8.13,0,0,1-8.12-8.12A8,8,0,0,1,125.78,139.36Z" transform="translate(-7.84 -8.07)"/><path id="Path_1468" data-name="Path 1468" class="cls-4" d="M147.17,123.79a13.61,13.61,0,0,0-3.75-.55,14,14,0,0,0-13.75,11.45,15.73,15.73,0,0,0-.25,2.55" transform="translate(-7.84 -8.07)"/><path id="Path_1469" data-name="Path 1469" class="cls-4" d="M196.25,123.91v-.18a21,21,0,0,0-.91-6.24A22.34,22.34,0,0,0,174,101.43" transform="translate(-7.84 -8.07)"/><path id="Path_1470" data-name="Path 1470" class="cls-4" d="M210.37,139.66a12.13,12.13,0,0,0-10.73-12" transform="translate(-7.84 -8.07)"/></g><g id="Group_1481" data-name="Group 1481"><path id="Path_1450" data-name="Path 1450" class="cls-5" d="M178.49,143.35V60.17a3.92,3.92,0,0,0-3.91-3.91H39.46a3.92,3.92,0,0,0-3.9,3.91v83.18Z" transform="translate(-7.84 -8.07)"/><rect id="Rectangle_184" data-name="Rectangle 184" class="cls-6" x="34.38" y="54.86" width="129.6" height="73"/><path id="Path_1451" data-name="Path 1451" class="cls-7" d="M35.33,143.51v12a4.24,4.24,0,0,0,4.21,4.21H174.66a4.24,4.24,0,0,0,4.21-4.21v-12Z" transform="translate(-7.84 -8.07)"/><path id="Path_1452" data-name="Path 1452" class="cls-7" d="M131.76,177.44s-1.07-.54-2.22-1a30.89,30.89,0,0,1-3.67-1.53c-1.61-.77-1.69-1.23-2.3-3.83-.62-2.84-1.23-8.81-1.53-11.42H92.09a104.74,104.74,0,0,1-1.54,11.42c-.61,2.6-.69,3.06-2.3,3.83-.92.46-2.37,1-3.67,1.53h0l-2.22.84s-1,.54.61.61h48.1C132.53,177.9,131.76,177.44,131.76,177.44Z" transform="translate(-7.84 -8.07)"/><path id="Path_1453" data-name="Path 1453" class="cls-8" d="M122.34,162.88c-.15-1.22-.23-2.37-.3-3.14H92.09c-.08.77-.16,1.92-.31,3.14Z" transform="translate(-7.84 -8.07)"/></g><g id="Group_1495" data-name="Group 1495"><path id="Path_1467-2" data-name="Path 1467-2" class="cls-3" d="M108,200.48c0-.58-.1-1.22-.1-1.85a15.53,15.53,0,0,1,19.73-15A22.8,22.8,0,0,1,173,186.8V187a13.92,13.92,0,0,1-1.59,27.74H108.81v-.06c-.21,0-.42.06-.58.06a7.12,7.12,0,0,1-7.11-7.11A7,7,0,0,1,108,200.48Z" transform="translate(-7.84 -8.07)"/><path id="Path_1468-2" data-name="Path 1468-2" class="cls-4" d="M126.68,186.86a12.1,12.1,0,0,0-3.28-.48,12.24,12.24,0,0,0-12,10,13.91,13.91,0,0,0-.21,2.23" transform="translate(-7.84 -8.07)"/><path id="Path_1469-2" data-name="Path 1469-2" class="cls-4" d="M169.64,187v-.16a18.37,18.37,0,0,0-.8-5.46,19.55,19.55,0,0,0-18.72-14.05" transform="translate(-7.84 -8.07)"/><path id="Path_1470-2" data-name="Path 1470-2" class="cls-4" d="M182,200.75a10.62,10.62,0,0,0-9.39-10.55" transform="translate(-7.84 -8.07)"/></g><g id="Group_1498" data-name="Group 1498"><g id="Group_1496" data-name="Group 1496"><rect id="Rectangle_186" data-name="Rectangle 186" class="cls-3" x="44.95" y="58.3" width="106.86" height="62.81"/><rect id="Rectangle_187" data-name="Rectangle 187" class="cls-7" x="44.95" y="58.3" width="106.86" height="16.09"/><rect id="Rectangle_188" data-name="Rectangle 188" class="cls-8" x="44.95" y="58.3" width="106.86" height="6.74"/><line id="Line_23" data-name="Line 23" class="cls-9" x1="47.64" y1="69.72" x2="62.19" y2="69.72"/><line id="Line_24" data-name="Line 24" class="cls-9" x1="108.76" y1="69.72" x2="114.58" y2="69.72"/><line id="Line_25" data-name="Line 25" class="cls-9" x1="117.11" y1="69.72" x2="122.93" y2="69.72"/><line id="Line_26" data-name="Line 26" class="cls-9" x1="125.54" y1="69.72" x2="131.36" y2="69.72"/><line id="Line_27" data-name="Line 27" class="cls-9" x1="133.96" y1="69.72" x2="139.78" y2="69.72"/><line id="Line_28" data-name="Line 28" class="cls-9" x1="142.39" y1="69.72" x2="148.21" y2="69.72"/><line id="Line_29" data-name="Line 29" class="cls-10" x1="47.1" y1="61.6" x2="49.09" y2="61.6"/><line id="Line_30" data-name="Line 30" class="cls-10" x1="50.93" y1="61.6" x2="52.84" y2="61.6"/><line id="Line_31" data-name="Line 31" class="cls-10" x1="54.68" y1="61.6" x2="56.67" y2="61.6"/></g><g id="Group_1672" data-name="Group 1672"><path id="Path_1471" data-name="Path 1471" class="cls-11" d="M96.52,99.84a3.76,3.76,0,0,1,2.83-1.23,4,4,0,1,1,0,8,3.85,3.85,0,0,1-2.83-1.23v6.82H89.24a3.76,3.76,0,0,0,1.23-2.83,4,4,0,1,0-8,0,3.85,3.85,0,0,0,1.23,2.83H77.22V93H96.44v6.89Z" transform="translate(-7.84 -8.07)"/><path id="Path_1472" data-name="Path 1472" class="cls-12" d="M108.78,112.25a3.74,3.74,0,0,1,1.22,2.83,4,4,0,0,1-8,0h0a3.84,3.84,0,0,1,1.22-2.83H96.44V105a3.78,3.78,0,0,0,2.84,1.23,4,4,0,0,0,0-8,3.87,3.87,0,0,0-2.84,1.23V93h19.23v19.22h-6.89Z" transform="translate(-7.84 -8.07)"/><path id="Path_1473" data-name="Path 1473" class="cls-13" d="M115.67,99.84a3.76,3.76,0,0,0-2.83-1.23,4,4,0,1,0,0,8,3.85,3.85,0,0,0,2.83-1.23v6.82H123a3.73,3.73,0,0,1-1.23-2.83,4,4,0,1,1,8,0,3.89,3.89,0,0,1-1.23,2.83H135V93H115.75v6.89Z" transform="translate(-7.84 -8.07)"/></g></g><g id="up-arrow"><g id="Group_1674" data-name="Group 1674"><path id="Path_1699" data-name="Path 1699" class="cls-14" d="M157.44,189.19l-10-9.95a.82.82,0,0,0-1.16,0h0l-9.94,9.95a.82.82,0,0,0,0,1.15.84.84,0,0,0,.6.25h4.32a.6.6,0,0,1,.61.6h0v13.49a.82.82,0,0,0,.82.82h8.38a.82.82,0,0,0,.83-.83V191.2a.61.61,0,0,1,.61-.61h4.33a.82.82,0,0,0,.83-.8.86.86,0,0,0-.25-.6Z" transform="translate(-7.84 -8.07)"/></g></g></g></svg>